<?xml version="1.0" encoding="UTF-8" standalone="no"?><!DOCTYPE svg PUBLIC "-//W3C//DTD SVG 1.1//EN" "http://www.w3.org/Graphics/SVG/1.1/DTD/svg11.dtd"><svg width="100%" height="100%" viewBox="0 0 300 300" version="1.1" xmlns="http://www.w3.org/2000/svg" xmlns:xlink="http://www.w3.org/1999/xlink" xml:space="preserve" xmlns:serif="http://www.serif.com/" style="fill-rule:evenodd;clip-rule:evenodd;stroke-linecap:round;stroke-linejoin:round;stroke-miterlimit:10;"> <g> <g transform="matrix(3.87321e-17,-0.616667,1.62162,9.94219e-17,-99.7297,244.967)"> <path d="M274,228L194.252,228L194,80L273.748,80L274,228Z" style="fill:rgb(238,82,129);fill-rule:nonzero;stroke:black;stroke-width:6.52px;"/> </g> <g transform="matrix(3.87321e-17,-0.616667,1.62162,9.94219e-17,-99.7297,294.3)"> <path d="M274,228L194.252,228L194,80L273.748,80L274,228Z" style="fill:white;fill-rule:nonzero;stroke:black;stroke-width:6.52px;"/> </g> <g transform="matrix(3.87321e-17,-0.616667,1.62162,9.94219e-17,-99.7297,343.633)"> <path d="M274,228L194.252,228L194,80L273.748,80L274,228Z" style="fill-rule:nonzero;stroke:black;stroke-width:6.52px;"/> </g> <g transform="matrix(0.75,0,0,0.749983,79.443,33.003)"> <path d="M78.076,133.999L110.076,133.999L110.076,168.73C110.076,168.73 106.076,178 94.076,178C82.076,178 78.076,168.73 78.076,168.73L78.076,133.999Z" style="fill:rgb(254,218,56);fill-rule:nonzero;stroke:black;stroke-width:8px;"/> </g> </g></svg>