<?xml version="1.0" encoding="UTF-8" standalone="no"?><!DOCTYPE svg PUBLIC "-//W3C//DTD SVG 1.1//EN" "http://www.w3.org/Graphics/SVG/1.1/DTD/svg11.dtd"><svg width="100%" height="100%" viewBox="0 0 300 300" version="1.1" xmlns="http://www.w3.org/2000/svg" xmlns:xlink="http://www.w3.org/1999/xlink" xml:space="preserve" xmlns:serif="http://www.serif.com/" style="fill-rule:evenodd;clip-rule:evenodd;stroke-linecap:round;stroke-linejoin:round;stroke-miterlimit:10;"> <g> <g transform="matrix(1.00063,0,0,1,-4.0976,-4)"> <path d="M273.842,80L34.076,80L34.19,128L273.924,128L273.842,80Z" style="fill:rgb(131,216,22);fill-rule:nonzero;stroke:black;stroke-width:8px;"/> </g> <g transform="matrix(1.00063,0,0,1,-4.0976,-4)"> <path d="M34.089,128L34.213,181L273.911,181L273.822,128L34.089,128Z" style="fill:rgb(254,218,56);fill-rule:nonzero;stroke:black;stroke-width:8px;"/> </g> <g transform="matrix(1.00063,0,0,1,-4.0976,-4)"> <path d="M34.225,228L273.889,228L273.808,180L34.111,180L34.225,228Z" style="fill:rgb(238,82,129);fill-rule:nonzero;stroke:black;stroke-width:8px;"/> </g> <g transform="matrix(1,0,0,1,-6.076,-5.082)"> <circle cx="156.076" cy="154" r="50" style="fill:rgb(40,142,234);stroke:black;stroke-width:8px;"/> </g> <g transform="matrix(1.00063,0,0,1,-6.17491,-4)"> <path d="M156.076,167.937L173.313,179.443L167.697,159.494L183.966,146.656L163.258,145.833L156.076,126.393L148.894,145.833L128.186,146.656L144.456,159.494L138.839,179.443L156.076,167.937Z" style="fill:rgb(254,218,56);fill-rule:nonzero;stroke:black;stroke-width:8px;stroke-linecap:square;"/> </g> </g></svg>