<?xml version="1.0" encoding="UTF-8" standalone="no"?><!DOCTYPE svg PUBLIC "-//W3C//DTD SVG 1.1//EN" "http://www.w3.org/Graphics/SVG/1.1/DTD/svg11.dtd"><svg width="100%" height="100%" viewBox="0 0 300 300" version="1.1" xmlns="http://www.w3.org/2000/svg" xmlns:xlink="http://www.w3.org/1999/xlink" xml:space="preserve" xmlns:serif="http://www.serif.com/" style="fill-rule:evenodd;clip-rule:evenodd;stroke-linecap:round;stroke-linejoin:round;stroke-miterlimit:10;"> <g> <g transform="matrix(1,0,0,1,-4,-4)"> <path d="M114,228L34.252,228L34,80L113.748,80L114,228Z" style="fill:rgb(131,216,22);fill-rule:nonzero;stroke:black;stroke-width:8px;"/> </g> <g transform="matrix(1,0,0,1,-4,-4)"> <path d="M194,228L114.252,228L114,80L193.748,80L194,228Z" style="fill:white;fill-rule:nonzero;stroke:black;stroke-width:8px;"/> </g> <g transform="matrix(1,0,0,1,-4,-4)"> <path d="M274,228L194.252,228L194,80L273.748,80L274,228Z" style="fill:rgb(238,82,129);fill-rule:nonzero;stroke:black;stroke-width:8px;"/> </g> <g transform="matrix(1,0,0,1,2.34899,-3.25419)"> <circle cx="147.651" cy="144.295" r="18.121" style="fill:rgb(180,111,62);stroke:black;stroke-width:8px;stroke-miterlimit:1.5;"/> </g> <g transform="matrix(1,0,0,1,18.919,69.0804)"> <rect x="102.081" y="90" width="8" height="8" style="fill:rgb(131,216,22);"/> </g> <g transform="matrix(1,0,0,1,34.9445,79.0797)"> <rect x="102.081" y="90" width="8" height="8" style="fill:rgb(131,216,22);"/> </g> <g transform="matrix(1,0,0,1,52.919,79.0797)"> <rect x="102.081" y="90" width="8" height="8" style="fill:rgb(131,216,22);"/> </g> <g transform="matrix(1,0,0,1,68.919,69.0804)"> <rect x="102.081" y="90" width="8" height="8" style="fill:rgb(131,216,22);"/> </g> </g></svg>