<?xml version="1.0" encoding="UTF-8" standalone="no"?><!DOCTYPE svg PUBLIC "-//W3C//DTD SVG 1.1//EN" "http://www.w3.org/Graphics/SVG/1.1/DTD/svg11.dtd"><svg width="100%" height="100%" viewBox="0 0 300 300" version="1.1" xmlns="http://www.w3.org/2000/svg" xmlns:xlink="http://www.w3.org/1999/xlink" xml:space="preserve" xmlns:serif="http://www.serif.com/" style="fill-rule:evenodd;clip-rule:evenodd;stroke-linecap:round;stroke-linejoin:round;stroke-miterlimit:1.5;"> <path d="M274.001,228L90,228L90,80L274.001,80L274.001,228ZM165.357,110.001C161.465,116.364 159.227,123.815 159.227,131.775C159.227,155.147 178.523,174.121 202.292,174.121C209.392,174.121 216.094,172.427 222.001,169.429C214.468,181.751 200.738,190.001 185.066,190.001C161.297,190.001 142.001,171.027 142.001,147.655C142.001,131.265 151.49,117.038 165.357,110.001ZM217.407,119.606L212.459,129.316L220.166,137.022L209.401,135.318L204.454,145.028L202.749,134.264L191.985,132.559L201.695,127.612L199.991,116.848L207.697,124.554L217.407,119.606Z" style="fill:rgb(131,216,22);stroke:black;stroke-width:8px;"/> <path d="M34,80L90,80L90,228L34,228L34,80ZM165.357,110.001C161.465,116.364 159.227,123.815 159.227,131.775C159.227,155.147 178.523,174.121 202.292,174.121C209.392,174.121 216.094,172.427 222.001,169.429C214.468,181.751 200.738,190.001 185.066,190.001C161.297,190.001 142.001,171.027 142.001,147.655C142.001,131.265 151.49,117.038 165.357,110.001ZM217.407,119.606L212.459,129.316L220.166,137.022L209.401,135.318L204.454,145.028L202.749,134.264L191.985,132.559L201.695,127.612L199.991,116.848L207.697,124.554L217.407,119.606Z" style="fill:white;stroke:black;stroke-width:8px;"/></svg>