<?xml version="1.0" encoding="UTF-8" standalone="no"?><!DOCTYPE svg PUBLIC "-//W3C//DTD SVG 1.1//EN" "http://www.w3.org/Graphics/SVG/1.1/DTD/svg11.dtd"><svg width="100%" height="100%" viewBox="0 0 300 300" version="1.1" xmlns="http://www.w3.org/2000/svg" xmlns:xlink="http://www.w3.org/1999/xlink" xml:space="preserve" xmlns:serif="http://www.serif.com/" style="fill-rule:evenodd;clip-rule:evenodd;stroke-linecap:round;stroke-linejoin:round;stroke-miterlimit:10;"> <g> <g transform="matrix(0.7,0,0,1,10.2,0)"> <path d="M114,228L34.252,228L34,80L113.748,80L114,228Z" style="fill:white;fill-rule:nonzero;stroke:black;stroke-width:9.27px;"/> </g> <g transform="matrix(2.3,0,0,1,-356.2,0)"> <path d="M274,228L194.252,228L194,80L273.748,80L274,228Z" style="fill:rgb(131,216,22);fill-rule:nonzero;stroke:black;stroke-width:4.51px;"/> </g> <g transform="matrix(1.07663,0,0,1.05865,-23.8004,-15.3772)"> <path d="M175.694,118.432C172.079,124.443 170,131.481 170,139C170,161.077 187.923,179 210,179C216.595,179 222.82,177.4 228.306,174.568C221.309,186.207 208.557,194 194,194C171.923,194 154,176.077 154,154C154,138.518 162.814,125.079 175.694,118.432Z" style="fill:white;stroke:black;stroke-width:7.49px;stroke-miterlimit:1.5;"/> </g> <g transform="matrix(0.73149,0.73149,-0.684297,0.684297,147.597,-118.541)"> <path d="M210.5,123L213.755,133.71L224.29,133.71L215.767,140.33L219.023,151.04L210.5,144.42L201.977,151.04L205.233,140.33L196.71,133.71L207.245,133.71L210.5,123Z" style="fill:white;stroke:black;stroke-width:7.99px;stroke-miterlimit:1.5;"/> </g> </g></svg>