<?xml version="1.0" encoding="UTF-8" standalone="no"?>
<!DOCTYPE svg PUBLIC "-//W3C//DTD SVG 1.1//EN" "http://www.w3.org/Graphics/SVG/1.1/DTD/svg11.dtd">
<svg width="100%" height="100%" viewBox="0 0 300 300" version="1.1" xmlns="http://www.w3.org/2000/svg" xmlns:xlink="http://www.w3.org/1999/xlink" xml:space="preserve" xmlns:serif="http://www.serif.com/" style="fill-rule:evenodd;clip-rule:evenodd;stroke-linecap:round;stroke-linejoin:round;stroke-miterlimit:10;">
    <g transform="matrix(1.05301,0,0,0.72549,-8.10037,42.2745)">
        <g transform="matrix(1,0,0,1,-3.85847,-5.51351)">
            <path d="M224.519,52L43.34,52L42,52L42,256L266,256L266,52L224.519,52Z" style="fill:rgb(238,82,129);fill-rule:nonzero;stroke:black;stroke-width:8px;"/>
        </g>
        <g transform="matrix(0.689299,0,0,1,45.3681,-5.51351)">
            <path d="M213.584,132L174,132L174,92.416L130,92.416L130,132L90.416,132L90.416,176L130,176L130,215.584L174,215.584L174,176L213.584,176L213.584,132Z" style="fill:white;fill-rule:nonzero;stroke:black;stroke-width:8px;"/>
        </g>
    </g>
</svg>
