<?xml version="1.0" encoding="UTF-8" standalone="no"?><!DOCTYPE svg PUBLIC "-//W3C//DTD SVG 1.1//EN" "http://www.w3.org/Graphics/SVG/1.1/DTD/svg11.dtd"><svg width="100%" height="100%" viewBox="0 0 300 300" version="1.1" xmlns="http://www.w3.org/2000/svg" xmlns:xlink="http://www.w3.org/1999/xlink" xml:space="preserve" xmlns:serif="http://www.serif.com/" style="fill-rule:evenodd;clip-rule:evenodd;stroke-linecap:round;stroke-linejoin:round;stroke-miterlimit:10;"> <g> <g transform="matrix(1,0,0,0.880952,-4,14.3333)"> <rect x="34" y="94" width="240" height="120" style="fill:white;stroke:black;stroke-width:8px;"/> </g> <g transform="matrix(1,0,0,0.880952,-4,14.3333)"> <rect x="34" y="70" width="240" height="24" style="fill:rgb(249,125,163);stroke:black;stroke-width:8px;"/> </g> <g transform="matrix(1,0,0,0.880952,-4,14.3333)"> <rect x="34" y="118" width="240" height="24" style="fill:rgb(249,125,163);stroke:black;stroke-width:8px;"/> </g> <g transform="matrix(1,0,0,0.880952,-4,14.3333)"> <rect x="34" y="166" width="240" height="24" style="fill:rgb(249,125,163);stroke:black;stroke-width:8px;"/> </g> <g transform="matrix(1,0,0,0.880952,-4,14.3333)"> <rect x="34" y="214" width="240" height="24" style="fill:rgb(249,125,163);stroke:black;stroke-width:8px;"/> </g> <g transform="matrix(1,0,0,0.880952,-4,14.3333)"> <path d="M154,70L34,70L34.176,166L154,166L154,70Z" style="fill:rgb(40,142,234);fill-rule:nonzero;stroke:black;stroke-width:8px;"/> </g> <g transform="matrix(1,0,0,0.880952,-4,14.3333)"> <path d="M62,94L62,110" style="fill:none;stroke:white;stroke-width:8px;"/> </g> <g transform="matrix(1,0,0,0.880952,-4,14.3333)"> <path d="M54,102L70,102" style="fill:none;stroke:white;stroke-width:8px;"/> </g> <g transform="matrix(1,0,0,0.880952,-4,14.3333)"> <path d="M94,94L94,110" style="fill:none;stroke:white;stroke-width:8px;"/> </g> <g transform="matrix(1,0,0,0.880952,-4,14.3333)"> <path d="M86,102L102,102" style="fill:none;stroke:white;stroke-width:8px;"/> </g> <g transform="matrix(1,0,0,0.880952,-4,14.3333)"> <path d="M126,94L126,110" style="fill:none;stroke:white;stroke-width:8px;"/> </g> <g transform="matrix(1,0,0,0.880952,-4,14.3333)"> <path d="M118,102L134,102" style="fill:none;stroke:white;stroke-width:8px;"/> </g> <g transform="matrix(1,0,0,0.880952,-4,14.3333)"> <path d="M94,126L94,142" style="fill:none;stroke:white;stroke-width:8px;"/> </g> <g transform="matrix(1,0,0,0.880952,-4,14.3333)"> <path d="M86,134L102,134" style="fill:none;stroke:white;stroke-width:8px;"/> </g> <g transform="matrix(1,0,0,0.880952,-4,14.3333)"> <path d="M126,126L126,142" style="fill:none;stroke:white;stroke-width:8px;"/> </g> <g transform="matrix(1,0,0,0.880952,-4,14.3333)"> <path d="M118,134L134,134" style="fill:none;stroke:white;stroke-width:8px;"/> </g> <g transform="matrix(1,0,0,0.880952,-4,14.3333)"> <path d="M62,126L62,142" style="fill:none;stroke:white;stroke-width:8px;"/> </g> <g transform="matrix(1,0,0,0.880952,-4,14.3333)"> <path d="M54,134L70,134" style="fill:none;stroke:white;stroke-width:8px;"/> </g> </g></svg>