<svg viewBox="0 0 300 300" xmlns="http://www.w3.org/2000/svg"><g stroke="#000" stroke-width="8" stroke-linecap="round" stroke-linejoin="round" stroke-miterlimit="10"><path fill="#83d816" d="M36 80l.353 148H156V80z"/><path fill="#fff" d="M271.758 80H156v148h116z"/><path d="M167.76 192c-19.75 0-35.76-16.01-35.76-35.76s16.01-35.76 35.76-35.76c5.81 0 12.723 1.745 19.587 4.664C179.366 117.037 168.275 112 156 112c-24.301 0-44 19.699-44 44s19.699 44 44 44c10.714 0 20.526-3.837 28.157-10.201-5.789 1.441-11.488 2.201-16.397 2.201z" fill="#ee5281"/><path fill="#ee5281" d="M180.261 166.247l9.064 9.475 2.008-12.958 11.813-5.692-11.704-5.914-1.763-12.993-9.241 9.303-12.902-2.338 5.992 11.663-6.211 11.548z"/></g></svg>