<svg viewBox="0 0 300 300" xmlns="http://www.w3.org/2000/svg"><path fill="#288eea" stroke="#000" stroke-width="8" stroke-linecap="round" stroke-linejoin="round" stroke-miterlimit="10" d="M271.842 80H32.076l.114 48h239.734z"/><path fill="#288eea" d="M28.076 128v52h.898l-.125-52z"/><path fill="#ee5281" stroke="#000" stroke-width="8" stroke-linecap="round" stroke-linejoin="round" stroke-miterlimit="10" d="M32.076 128l.124 53h239.711l-.089-53z"/><path fill="#83d816" stroke="#000" stroke-width="8" stroke-linecap="round" stroke-linejoin="round" stroke-miterlimit="10" d="M32.19 228h239.699l-.081-48H32.076z"/><path d="M145.851 185.784c-17.554 0-31.784-14.23-31.784-31.784s14.23-31.784 31.784-31.784c6.676 0 14.201 2.063 20.966 5.58-7.024-7.544-17.037-12.268-28.158-12.268-21.248 0-38.473 17.225-38.473 38.473s17.225 38.473 38.473 38.473c11.121 0 21.134-4.724 28.158-12.268-6.765 3.515-14.29 5.578-20.966 5.578z" fill="#fff" stroke="#000" stroke-width="8" stroke-linecap="round" stroke-linejoin="round" stroke-miterlimit="10"/><path fill="#fff" stroke="#000" stroke-width="8" stroke-linecap="round" stroke-linejoin="round" stroke-miterlimit="10" d="M177.395 148.799l-13.637.543 10.714 8.454-3.697 13.137 11.351-7.578 11.351 7.576-3.699-13.137 10.713-8.454-13.637-.542-4.73-12.801z"/></svg>