<svg viewBox="0 0 300 300" xmlns="http://www.w3.org/2000/svg"><path fill="#ee5281" stroke="#000" stroke-width="8" stroke-linecap="round" stroke-linejoin="round" stroke-miterlimit="10" d="M271.88 80.076V80H36l116 76z"/><path fill="#83d816" stroke="#000" stroke-width="8" stroke-linecap="round" stroke-linejoin="round" stroke-miterlimit="10" d="M36 80l.169 72h-.148l.178 76h5.906L152 156z"/><path fill="#ee5281" stroke="#000" stroke-width="8" stroke-linecap="round" stroke-linejoin="round" stroke-miterlimit="10" d="M42.105 228h223.58L152 156z"/><path fill="#83d816" stroke="#000" stroke-width="8" stroke-linecap="round" stroke-linejoin="round" stroke-miterlimit="10" d="M271.88 80.076L152 156l113.685 72h6.294l-.126-76H272z"/><path fill="#fff" stroke="#000" stroke-width="8" stroke-linecap="round" stroke-linejoin="round" stroke-miterlimit="10" d="M152 156l-9.22-6.041-106.602 69.209.021 8.832h23.104l101.911-66.164z"/><path fill="#fff" stroke="#000" stroke-width="8" stroke-linecap="round" stroke-linejoin="round" stroke-miterlimit="10" d="M152 156l-11.835 7.754L239.121 228h32.858l-.004-2.515-113.42-73.636zM152 152l-9.22 6.041L36.178 88.832 36.199 80h23.104l101.911 66.164z"/><path fill="#fff" stroke="#000" stroke-width="8" stroke-linecap="round" stroke-linejoin="round" stroke-miterlimit="10" d="M152 152l-11.835-7.754L239.121 80h32.858l-.004 2.515-113.42 73.636z"/><circle cx="150" cy="154" r="41.468" fill="#fff" stroke="#000" stroke-width="8" stroke-miterlimit="10"/><path fill="#ee5281" d="M144 136h12v12h-12zM160 156h12v12h-12zM128 156h12v12h-12z"/></svg>