<svg viewBox="0 0 300 300" xmlns="http://www.w3.org/2000/svg"><g stroke="#000" stroke-width="8" stroke-linecap="round" stroke-linejoin="round" stroke-miterlimit="10"><path fill="#288eea" d="M273.766 80H34l.114 48h239.733zM274 128h-.169l.088 52H274zM34.148 228h239.665l-.081-48H34.034z"/><path fill="#ee5281" d="M34.013 116l.124 76h239.697l-.088-76z"/><path d="M176.893 145.436s-3.362-13.446-6.723-10.085c-3.362 3.362-3.362 10.085-3.362 10.085h-10.085c-3.362-20.169-10.085-20.169-13.446 0h-10.085s0-6.723-3.362-10.085c-3.362-3.362-6.723 10.085-6.723 10.085l-10.085 30.254h73.955l-10.084-30.254z" fill="#fff"/></g></svg>