<svg viewBox="0 0 300 300" xmlns="http://www.w3.org/2000/svg"><g stroke="#000" stroke-width="8" stroke-linecap="round" stroke-linejoin="round" stroke-miterlimit="10"><path fill="#ee5281" d="M274 228h-51.836L222 80h51.836zM86 228H34.164L34 80h51.836z"/><path fill="#fff" d="M222 228H86.429L86 80h135.571z"/><path fill="#ee5281" d="M202 160l-8-8 6.243-16.189-17.638 2.994-2.661-7.318-13.304 11.309 4.656-24.614-7.983 3.659L154 106.208l-9.313 15.633-7.983-3.659 4.656 24.614-13.304-11.309-2.661 7.318-17.638-2.994L114 152l-8 8 26.38 12.732-2.328 7.318L154 176.723l23.948 3.327-2.328-7.318z"/><path fill="none" d="M154 201.538v-22.956"/></g></svg>