<svg viewBox="0 0 300 300" xmlns="http://www.w3.org/2000/svg" fill-rule="evenodd" clip-rule="evenodd" stroke-linecap="round" stroke-linejoin="round" stroke-miterlimit="10"><path d="M273.668 78H34.081l.352 152h239.486l-.251-152z" fill="#ee5281" fill-rule="nonzero" stroke="#000" stroke-width="8.1" transform="matrix(1.00068 0 0 .97368 -4.104 .053)"/><path d="M82.074 117.6l17.143.682-13.469 10.627 4.648 16.514-14.268-9.525-14.27 9.523 4.65-16.513-13.467-10.629 17.142-.68 5.947-16.093 5.944 16.094z" fill="#feda38" fill-rule="nonzero" stroke="#000" stroke-width="8" transform="matrix(.97453 0 0 1.02466 -6.69 -3.772)"/><path fill="#feda38" d="M98.046 150h8.006v7.79h-8.006zM114.057 130.526h8.006v7.79h-8.006zM114.057 107.158h8.006v7.79h-8.006zM98.046 87.684h8.006v7.79h-8.006z"/></svg>