<?xml version="1.0" encoding="UTF-8" standalone="no"?><!DOCTYPE svg PUBLIC "-//W3C//DTD SVG 1.1//EN" "http://www.w3.org/Graphics/SVG/1.1/DTD/svg11.dtd"><svg width="100%" height="100%" viewBox="0 0 300 300" version="1.1" xmlns="http://www.w3.org/2000/svg" xmlns:xlink="http://www.w3.org/1999/xlink" xml:space="preserve" xmlns:serif="http://www.serif.com/" style="fill-rule:evenodd;clip-rule:evenodd;stroke-linecap:round;stroke-linejoin:round;stroke-miterlimit:10;"> <g> <g transform="matrix(1.00068,0,0,0.973684,-4.10402,0.0526316)"> <path d="M273.668,78L34.081,78L34.433,230L273.919,230L273.668,78Z" style="fill:rgb(238,82,129);fill-rule:nonzero;stroke:black;stroke-width:8.1px;"/> </g> <g transform="matrix(0.974532,0,0,1.02466,-6.69016,-3.77231)"> <path d="M82.074,117.6L99.217,118.282L85.748,128.909L90.396,145.423L76.128,135.898L61.858,145.421L66.508,128.908L53.041,118.279L70.183,117.599L76.13,101.506L82.074,117.6Z" style="fill:rgb(254,218,56);fill-rule:nonzero;stroke:black;stroke-width:8px;"/> </g> <g> <g transform="matrix(1.00068,0,0,0.973684,-4.10402,0.0526316)"> <rect x="102.081" y="154" width="8" height="8" style="fill:rgb(254,218,56);"/> </g> <g transform="matrix(1.00068,0,0,0.973684,-4.10402,0.0526316)"> <rect x="118.081" y="134" width="8" height="8" style="fill:rgb(254,218,56);"/> </g> <g transform="matrix(1.00068,0,0,0.973684,-4.10402,0.0526316)"> <rect x="118.081" y="110" width="8" height="8" style="fill:rgb(254,218,56);"/> </g> <g transform="matrix(1.00068,0,0,0.973684,-4.10402,0.0526316)"> <rect x="102.081" y="90" width="8" height="8" style="fill:rgb(254,218,56);"/> </g> </g> </g></svg>