<svg viewBox="0 0 300 300" xmlns="http://www.w3.org/2000/svg" fill-rule="evenodd" clip-rule="evenodd" stroke-linecap="round" stroke-linejoin="round" stroke-miterlimit="1.5"><path fill="#ee5281" stroke="#000" stroke-width="4.09" d="M113.083 171H229.73v80H113.083z" transform="matrix(2.05749 0 0 1.85 -202.667 -240.35)"/><path d="M270 224H71.739L270 129v95zM30 171V76h198.261L30 171z" fill="#288eea" stroke="#000" stroke-width="8"/><path d="M71.739 224H30l240-115v20L71.739 224zM228.261 76H270L30 191v-20l198.261-95zM71.454 104.323l18.563.777-14.585 12.099L80.465 136l-15.449-10.844-15.452 10.842 5.035-18.801-14.582-12.101 18.561-.774L65.018 86l6.436 18.323z" fill="#feda38" stroke="#000" stroke-width="8"/></svg>