<?xml version="1.0" encoding="UTF-8" standalone="no"?><!DOCTYPE svg PUBLIC "-//W3C//DTD SVG 1.1//EN" "http://www.w3.org/Graphics/SVG/1.1/DTD/svg11.dtd"><svg width="100%" height="100%" viewBox="0 0 300 300" version="1.1" xmlns="http://www.w3.org/2000/svg" xmlns:xlink="http://www.w3.org/1999/xlink" xml:space="preserve" xmlns:serif="http://www.serif.com/" style="fill-rule:evenodd;clip-rule:evenodd;stroke-linecap:round;stroke-linejoin:round;stroke-miterlimit:1.5;"> <g> <g transform="matrix(2.05749,0,0,1.85,-202.667,-240.35)"> <rect x="113.083" y="171" width="116.647" height="80" style="fill:rgb(238,82,129);stroke:black;stroke-width:4.09px;"/> </g> <path d="M270,224L71.739,224L270,129L270,224ZM30,171L30,76L228.261,76L30,171Z" style="fill:rgb(40,142,234);stroke:black;stroke-width:8px;"/> <path d="M71.739,224L30,224L270,109L270,129L71.739,224ZM228.261,76L270,76L30,191L30,171L228.261,76ZM71.454,104.323L90.017,105.1L75.432,117.199L80.465,136L65.016,125.156L49.564,135.998L54.599,117.197L40.017,105.096L58.578,104.322L65.018,86L71.454,104.323Z" style="fill:rgb(254,218,56);stroke:black;stroke-width:8px;"/> </g></svg>