<svg viewBox="0 0 300 300" xmlns="http://www.w3.org/2000/svg" fill-rule="evenodd" clip-rule="evenodd" stroke-linejoin="round" stroke-miterlimit="1.414"><path fill="#ee5281" d="M30 76h240v49.333H30z"/><path fill="#fff" d="M30 125.333h240v49.334H30z"/><path d="M30 174.666h240V224H30z"/><path d="M138 133.5h24v26.048s-3 6.952-12 6.952-12-6.952-12-6.952V133.5z" fill="#feda38" fill-rule="nonzero"/><path d="M273.999 224c-.219 3.053-1.7 3.492-2.872 3.836-.489.144-.623.126-1.127.162H30c-3.053-.218-3.493-1.699-3.837-2.872-.143-.488-.126-.622-.162-1.126V76c.219-3.053 1.7-3.493 2.872-3.837.489-.143.623-.126 1.127-.162h240l.569.041c1.715.373 1.927.733 2.453 1.339.526.607.852.869.977 2.619v148zm-7.998-45.335H33.999v41.336h232.002v-41.336zM33.999 129.332v41.335h232.002v-41.335H33.999zm128.197 1.174c.601.06.697.117.952.222 1.101.456 1.803 1.282 1.852 2.772v26.048c-.035 1.163-.217 1.159-.44 1.597-4.267 8.343-17.46 11.266-25.406 4.581-1.995-1.678-4.076-3.565-4.154-6.178V133.5c.02-.603.07-.703.159-.964.403-1.186 1.285-1.985 2.841-2.036h24l.196.006zM141 136.5v22.299c3.43 5.672 14.067 6.333 17.98.033L159 136.5h-18zM33.999 79.999v41.335h232.002V79.999H33.999z" fill-rule="nonzero"/></svg>