<?xml version="1.0" encoding="UTF-8" standalone="no"?><!DOCTYPE svg PUBLIC "-//W3C//DTD SVG 1.1//EN" "http://www.w3.org/Graphics/SVG/1.1/DTD/svg11.dtd"><svg width="100%" height="100%" viewBox="0 0 300 300" version="1.1" xmlns="http://www.w3.org/2000/svg" xmlns:xlink="http://www.w3.org/1999/xlink" xml:space="preserve" xmlns:serif="http://www.serif.com/" style="fill-rule:evenodd;clip-rule:evenodd;stroke-linejoin:round;stroke-miterlimit:1.41421;"> <g transform="matrix(1,0,0,0.333333,0,50.6667)"> <rect x="30" y="76" width="240" height="148" style="fill:rgb(238,82,129);"/> </g> <g transform="matrix(1,0,0,0.333333,0,100)"> <rect x="30" y="76" width="240" height="148" style="fill:white;"/> </g> <g transform="matrix(1,0,0,0.333333,0,149.333)"> <rect x="30" y="76" width="240" height="148"/> </g> <g transform="matrix(0.75,0,0,0.749983,79.443,33.003)"> <path d="M78.076,133.999L110.076,133.999L110.076,168.73C110.076,168.73 106.076,178 94.076,178C82.076,178 78.076,168.73 78.076,168.73L78.076,133.999Z" style="fill:rgb(254,218,56);fill-rule:nonzero;"/> </g> <path d="M273.999,224C273.78,227.053 272.299,227.492 271.127,227.836C270.638,227.98 270.504,227.962 270,227.998L30,227.998C26.947,227.78 26.507,226.299 26.163,225.126C26.02,224.638 26.037,224.504 26.001,224L26.001,125.333L26.001,125.333L26.001,125.333L26.001,76C26.22,72.947 27.701,72.507 28.873,72.163C29.362,72.02 29.496,72.037 30,72.001L270,72.001C270.19,72.015 270.379,72.028 270.569,72.042C272.284,72.415 272.496,72.775 273.022,73.381C273.548,73.988 273.874,74.25 273.999,76L273.999,125.333L273.999,224ZM266.001,178.665L33.999,178.665L33.999,220.001L266.001,220.001L266.001,178.665ZM33.999,129.332L33.999,170.667L266.001,170.667L266.001,129.332L33.999,129.332ZM162.196,130.506C162.797,130.566 162.893,130.623 163.148,130.728C164.249,131.184 164.951,132.01 165,133.5L165,159.548C164.965,160.711 164.783,160.707 164.56,161.145C160.293,169.488 147.1,172.411 139.154,165.726C137.159,164.048 135.078,162.161 135,159.548L135,133.5C135.02,132.897 135.07,132.797 135.159,132.536C135.562,131.35 136.444,130.551 138,130.5L162,130.5C162.065,130.502 162.131,130.504 162.196,130.506ZM141,136.5L141,158.799C144.43,164.471 155.067,165.132 158.98,158.832C158.98,158.832 159,136.5 159,136.5C153,136.5 147,136.5 141,136.5ZM33.999,79.999L33.999,121.334L266.001,121.334L266.001,79.999C188.667,79.999 111.333,79.999 33.999,79.999Z" style="fill-rule:nonzero;"/></svg>