<svg viewBox="0 0 300 300" xmlns="http://www.w3.org/2000/svg" fill-rule="evenodd" clip-rule="evenodd" stroke-linecap="round" stroke-linejoin="round" stroke-miterlimit="10"><path d="M273.842 80H34.076l.114 48h239.734l-.082-48z" fill="#83d816" fill-rule="nonzero" stroke="#000" stroke-width="8" transform="matrix(1.00063 0 0 1 -4.098 -4)"/><path d="M34.089 128l.124 53h239.698l-.089-53H34.089z" fill="#feda38" fill-rule="nonzero" stroke="#000" stroke-width="8" transform="matrix(1.00063 0 0 1 -4.098 -4)"/><path d="M34.225 228h239.664l-.081-48H34.111l.114 48z" fill="#ee5281" fill-rule="nonzero" stroke="#000" stroke-width="8" transform="matrix(1.00063 0 0 1 -4.098 -4)"/><circle cx="156.076" cy="154" r="50" fill="#288eea" stroke="#000" stroke-width="8" transform="translate(-6.076 -5.082)"/><path d="M156.076 167.937l17.237 11.506-5.616-19.949 16.269-12.838-20.708-.823-7.182-19.44-7.182 19.44-20.708.823 16.27 12.838-5.617 19.949 17.237-11.506z" fill="#feda38" fill-rule="nonzero" stroke="#000" stroke-width="8" stroke-linecap="square" transform="matrix(1.00063 0 0 1 -6.175 -4)"/></svg>