<svg viewBox="0 0 300 300" xmlns="http://www.w3.org/2000/svg"><g stroke-width="8" stroke-linecap="round" stroke-linejoin="round" stroke-miterlimit="10"><path fill="#ee5281" stroke="#000" d="M34.081 122l.24 64h239.558l-.171-64z"/><path fill="#83d816" stroke="#000" d="M34.433 230h239.486l-.04-24H34.377z"/><path stroke="#000" d="M273.668 78H34.081l.055 24h239.572z"/><path fill="#feda38" stroke="#000" d="M273.668 102H34.081l.055 20h239.572zM273.668 186H34.081l.055 20h239.572z"/><path fill="none" stroke="#fff" d="M182.081 110l-53 96M182.081 206l-53-96"/><path d="M174.374 154.017l-.001-.015c-.012-16.104-20.276-46.935-20.276-46.935s-20.264 30.832-20.276 46.935l-.001.015c0 16.1 20.277 46.95 20.277 46.95s20.277-30.85 20.277-46.95z" fill="#ee5281" stroke="#000"/></g></svg>