<svg viewBox="0 0 300 300" xmlns="http://www.w3.org/2000/svg" fill-rule="evenodd" clip-rule="evenodd" stroke-linecap="round" stroke-linejoin="round" stroke-miterlimit="1.5"><path d="M274.001 228H90V80h184.001v148zM165.357 110.001a41.586 41.586 0 00-6.13 21.774c0 23.372 19.296 42.346 43.065 42.346 7.1 0 13.802-1.694 19.709-4.692-7.533 12.322-21.263 20.572-36.935 20.572-23.769 0-43.065-18.974-43.065-42.346 0-16.39 9.489-30.617 23.356-37.654zm52.05 9.605l-4.948 9.71 7.707 7.706-10.765-1.704-4.947 9.71-1.705-10.764-10.764-1.705 9.71-4.947-1.704-10.764 7.706 7.706 9.71-4.948z" fill="#83d816" stroke="#000" stroke-width="8"/><path d="M34 80h56v148H34V80zm131.357 30.001a41.586 41.586 0 00-6.13 21.774c0 23.372 19.296 42.346 43.065 42.346 7.1 0 13.802-1.694 19.709-4.692-7.533 12.322-21.263 20.572-36.935 20.572-23.769 0-43.065-18.974-43.065-42.346 0-16.39 9.489-30.617 23.356-37.654zm52.05 9.605l-4.948 9.71 7.707 7.706-10.765-1.704-4.947 9.71-1.705-10.764-10.764-1.705 9.71-4.947-1.704-10.764 7.706 7.706 9.71-4.948z" fill="#fff" stroke="#000" stroke-width="8"/></svg>