<svg viewBox="0 0 300 300" xmlns="http://www.w3.org/2000/svg"><g stroke="#000" stroke-width="8" stroke-linecap="round" stroke-linejoin="round" stroke-miterlimit="10"><path fill="#fff" d="M273.822 128h.102l-.082-48H34.076l.115 48h-.102l.122 52h-.1l.114 48H273.89l-.08-47h.101z"/><path d="M168.491 148.092s-9.015-.82-13.113 5.737c-4.098 6.557-9.015 9.015-9.015 9.015-22.584 5.915-26.823-9.337-27.067-20.528a37.578 37.578 0 00-2.847 14.381c0 20.821 16.879 37.7 37.7 37.7 14.16 0 26.49-7.811 32.934-19.355 4.121-27.654-18.592-26.95-18.592-26.95z" fill="#26bbec"/><path d="M154.149 118.997c-15.727 0-29.2 9.634-34.853 23.319.245 11.191 4.484 26.443 27.067 20.528 0 0 4.917-2.459 9.015-9.015 4.098-6.557 13.113-5.737 13.113-5.737s22.713-.704 18.592 26.95a37.525 37.525 0 004.766-18.345c0-20.821-16.879-37.7-37.7-37.7z" fill="#ee5281"/><path fill="none" d="M92.801 133.437l16.467-24.82M79.691 126.304l16.467-24.821M212.801 209.437l16.467-24.82M199.691 202.304l16.467-24.821M92.801 177.483l16.467 24.821M79.691 184.617l16.467 24.82M212.801 101.483l16.467 24.821M199.691 108.617l16.467 24.82"/></g></svg>