<?xml version="1.0" encoding="UTF-8" standalone="no"?><!DOCTYPE svg PUBLIC "-//W3C//DTD SVG 1.1//EN" "http://www.w3.org/Graphics/SVG/1.1/DTD/svg11.dtd"><svg width="100%" height="100%" viewBox="0 0 300 300" version="1.1" xmlns="http://www.w3.org/2000/svg" xmlns:xlink="http://www.w3.org/1999/xlink" xml:space="preserve" xmlns:serif="http://www.serif.com/" style="fill-rule:evenodd;clip-rule:evenodd;stroke-linecap:round;stroke-linejoin:round;stroke-miterlimit:10;"> <g> <g transform="matrix(1,0,0,0.880952,-4,14.3333)"> <rect x="34" y="94" width="240" height="120" style="fill:white;stroke:black;stroke-width:8px;"/> </g> <g transform="matrix(1,0,0,0.880952,-4,14.3333)"> <rect x="34" y="70" width="240" height="24" style="fill:rgb(249,125,163);stroke:black;stroke-width:8px;"/> </g> <g transform="matrix(1,0,0,0.880952,-4,14.3333)"> <rect x="34" y="118" width="240" height="24" style="fill:rgb(249,125,163);stroke:black;stroke-width:8px;"/> </g> <g transform="matrix(1,0,0,0.880952,-4,14.3333)"> <rect x="34" y="166" width="240" height="24" style="fill:rgb(249,125,163);stroke:black;stroke-width:8px;"/> </g> <g transform="matrix(1,0,0,0.880952,-4,14.3333)"> <rect x="34" y="214" width="240" height="24" style="fill:rgb(249,125,163);stroke:black;stroke-width:8px;"/> </g> <g transform="matrix(1,0,0,0.880952,-4,14.3333)"> <path d="M154,70L34,70L34.176,166L154,166L154,70Z" style="fill:rgb(40,142,234);fill-rule:nonzero;stroke:black;stroke-width:8px;"/> </g> <g transform="matrix(1,0,0,1,-0.00264868,0.020202)"> <path d="M55,129.381L55,123.381C55,121.724 56.343,120.381 58,120.381C59.657,120.381 61,121.724 61,123.381L61,129.381L67,129.381C68.657,129.381 70,130.724 70,132.381C70,134.038 68.657,135.381 67,135.381L61,135.381L61,141.381C61,143.038 59.657,144.381 58,144.381C56.343,144.381 55,143.038 55,141.381L55,135.381L49,135.381C47.343,135.381 46,134.038 46,132.381C46,130.724 47.343,129.381 49,129.381L55,129.381ZM87,129.381L87,123.381C87,121.724 88.343,120.381 90,120.381C91.657,120.381 93,121.724 93,123.381L93,129.381L99,129.381C100.657,129.381 102,130.724 102,132.381C102,134.038 100.657,135.381 99,135.381L93,135.381L93,141.381C93,143.038 91.657,144.381 90,144.381C88.343,144.381 87,143.038 87,141.381L87,135.381L81,135.381C79.343,135.381 78,134.038 78,132.381C78,130.724 79.343,129.381 81,129.381L87,129.381ZM119,129.381L119,123.381C119,121.724 120.343,120.381 122,120.381C123.657,120.381 125,121.724 125,123.381L125,129.381L131,129.381C132.657,129.381 134,130.724 134,132.381C134,134.038 132.657,135.381 131,135.381L125,135.381L125,141.381C125,143.038 123.657,144.381 122,144.381C120.343,144.381 119,143.038 119,141.381L119,135.381L113,135.381C111.343,135.381 110,134.038 110,132.381C110,130.724 111.343,129.381 113,129.381L119,129.381ZM119.005,101.19L119.005,95.19C119.005,93.534 120.348,92.19 122.005,92.19C123.662,92.19 125.005,93.534 125.005,95.19L125.005,101.19L131.005,101.19C132.662,101.19 134.005,102.534 134.005,104.19C134.005,105.847 132.662,107.19 131.005,107.19L125.005,107.19L125.005,113.19C125.005,114.847 123.662,116.19 122.005,116.19C120.348,116.19 119.005,114.847 119.005,113.19L119.005,107.19L113.005,107.19C111.348,107.19 110.005,105.847 110.005,104.19C110.005,102.534 111.348,101.19 113.005,101.19L119.005,101.19ZM87,101.19L87,95.19C87,93.534 88.343,92.19 90,92.19C91.657,92.19 93,93.534 93,95.19L93,101.19L99,101.19C100.657,101.19 102,102.534 102,104.19C102,105.847 100.657,107.19 99,107.19L93,107.19L93,113.19C93,114.847 91.657,116.19 90,116.19C88.343,116.19 87,114.847 87,113.19L87,107.19L81,107.19C79.343,107.19 78,105.847 78,104.19C78,102.534 79.343,101.19 81,101.19L87,101.19ZM55,101.15L55,95.15C55,93.493 56.343,92.15 58,92.15C59.657,92.15 61,93.493 61,95.15L61,101.15L67,101.15C68.657,101.15 70,102.493 70,104.15C70,105.807 68.657,107.15 67,107.15L61,107.15L61,113.15C61,114.807 59.657,116.15 58,116.15C56.343,116.15 55,114.807 55,113.15L55,107.15L49,107.15C47.343,107.15 46,105.807 46,104.15C46,102.493 47.343,101.15 49,101.15L55,101.15Z" style="fill:white;"/> </g> </g></svg>