<svg viewBox="0 0 300 300" xmlns="http://www.w3.org/2000/svg"><g stroke="#000" stroke-width="8" stroke-linecap="round" stroke-linejoin="round" stroke-miterlimit="10"><path fill="#288eea" d="M273.749 70H34l.352 168H274z"/><path fill="#fff" d="M273.824 126h-88.1V70h-64.201v56H34l.142 59.757h87.381V238h64.201v-52.243h88.201z"/><path fill="#ee5281" d="M170 142h11.377l92.387-61.994L273.749 70H259.96L170 130.366zM138 142h-11.377L34.236 80.006 34.251 70H48.04L138 130.366zM170 166h11.377l92.387 61.994-.015 10.006H259.96L170 177.634zM138 166h-11.377l-92.387 61.994.015 10.006H48.04L138 177.634z"/><path fill="#ee5281" d="M273.851 142H170V70h-32v72H34l.066 28H138v68h32v-68h103.898z"/></g></svg>