<svg viewBox="0 0 300 300" xmlns="http://www.w3.org/2000/svg" fill-rule="evenodd" clip-rule="evenodd" stroke-linecap="round" stroke-linejoin="round" stroke-miterlimit="10"><path fill="#fff" stroke="#000" stroke-width="8" d="M34 94h240v120H34z" transform="matrix(1 0 0 .88095 -4 14.333)"/><path fill="#f97da3" stroke="#000" stroke-width="8" d="M34 70h240v24H34zM34 118h240v24H34zM34 166h240v24H34zM34 214h240v24H34z" transform="matrix(1 0 0 .88095 -4 14.333)"/><path d="M154 70H34l.176 96H154V70z" fill="#288eea" fill-rule="nonzero" stroke="#000" stroke-width="8" transform="matrix(1 0 0 .88095 -4 14.333)"/><path d="M54.997 129.401v-6a3 3 0 116 0v6h6a3 3 0 110 6h-6v6a3 3 0 11-6 0v-6h-6a3 3 0 110-6h6zm32 0v-6a3 3 0 116 0v6h6a3 3 0 110 6h-6v6a3 3 0 11-6 0v-6h-6a3 3 0 110-6h6zm32 0v-6a3 3 0 116 0v6h6a3 3 0 110 6h-6v6a3 3 0 11-6 0v-6h-6a3 3 0 110-6h6zm.005-28.19v-6a3 3 0 016 0v6h6a3 3 0 010 6h-6v6a3 3 0 11-6 0v-6h-6a3 3 0 110-6h6zm-32.005 0v-6a3 3 0 016 0v6h6a3 3 0 010 6h-6v6a3 3 0 11-6 0v-6h-6a3 3 0 110-6h6zm-32-.04v-6a3 3 0 116 0v6h6a3 3 0 110 6h-6v6a3 3 0 11-6 0v-6h-6a3 3 0 110-6h6z" fill="#fff"/></svg>