<?xml version="1.0" encoding="UTF-8" standalone="no"?><!DOCTYPE svg PUBLIC "-//W3C//DTD SVG 1.1//EN" "http://www.w3.org/Graphics/SVG/1.1/DTD/svg11.dtd"><svg width="100%" height="100%" viewBox="0 0 300 300" version="1.1" xmlns="http://www.w3.org/2000/svg" xmlns:xlink="http://www.w3.org/1999/xlink" xml:space="preserve" xmlns:serif="http://www.serif.com/" style="fill-rule:evenodd;clip-rule:evenodd;stroke-linecap:round;stroke-linejoin:round;stroke-miterlimit:1.5;"> <g transform="matrix(0.0414498,-0.0460347,0.0521807,0.0469837,72.4015,157.502)"> <rect x="1656.61" y="131.281" width="247.837" height="233.846" style="fill:rgb(204,204,204);stroke:black;stroke-width:120.83px;"/> </g> <g transform="matrix(0.0871367,0,0,0.0871367,1.87849,64.0387)"> <path d="M1519.63,325.625C1726.4,502.036 1919.05,524.521 2087.27,293.546L2198.11,450.61C2033.63,682.132 1661.44,641.146 1519.63,325.625Z" style="fill:rgb(204,204,204);stroke:black;stroke-width:91.81px;"/> </g> <g transform="matrix(0.0871367,0,0,0.0871367,1.87849,64.0387)"> <path d="M836.212,1186.91C984.014,1517.77 1365.3,1684.93 1554.86,1523.95C1642.52,1449.51 1684.22,1339.37 1608.78,1238.07C1554.24,1164.81 1440.25,1122.24 1290.07,1136.11L1266.57,996.653C1267.35,996.69 1268.14,996.719 1268.93,996.757C1462.5,1006.11 1569.07,876.924 1501.38,743.413C1432.02,616.187 1272.76,627.999 1144.62,724.938L1086.3,557.559C1340.21,413.214 1638.64,475.593 1690.54,697.955C1710.81,820.466 1669.13,911.799 1548.19,1003.89L1656.95,1024.87C1730.46,979.032 1775.64,912.985 1802.41,838.552C1949.9,570.242 2274.16,555.224 2479.99,830.552C2617.03,1025.59 2585.37,1304.8 2385.86,1466.95C2115.32,1669.45 1997.28,1449 1998.11,1288.17C2325.52,1515.83 2580.93,1205.18 2414.73,894.625C2305.31,719.442 2119.99,750.739 2019.89,977.277C1980.07,1061.61 1926.16,1118.07 1791.26,1116.04C1956.26,1316.49 1916.14,1527.93 1776.08,1679.56C1660.36,1804.83 1577.18,1823.75 1464.84,1835.75C1274.59,1822.88 1202.22,1767.26 1125.74,1709.61C854.755,1505.39 836.131,1186.73 836.212,1186.91Z" style="fill:rgb(204,204,204);stroke:black;stroke-width:91.81px;"/> </g></svg>