<svg viewBox="0 0 300 300" xmlns="http://www.w3.org/2000/svg" fill-rule="evenodd" clip-rule="evenodd" stroke-linecap="round" stroke-linejoin="round" stroke-miterlimit="1.5"><path fill="#ccc" stroke="#000" stroke-width="120.83" d="M1656.61 131.281h247.837v233.846H1656.61z" transform="matrix(.04145 -.04603 .05218 .04698 72.401 157.502)"/><path d="M134.294 92.413c18.017 15.371 34.804 17.33 49.462-2.796l9.659 13.686c-14.333 20.174-46.764 16.603-59.121-10.89z" fill="#ccc" stroke="#000" stroke-width="8.0003234"/><path d="M74.743 167.462c12.88 28.83 46.103 43.396 62.62 29.369 7.64-6.487 11.273-16.084 4.7-24.911-4.753-6.384-14.686-10.093-27.772-8.884l-2.048-12.152.206.009c16.867.815 26.153-10.442 20.255-22.076-6.044-11.086-19.921-10.057-31.087-1.61l-5.082-14.584c22.125-12.578 48.13-7.143 52.652 12.233 1.766 10.675-1.866 18.634-12.404 26.658l9.477 1.828c6.405-3.994 10.342-9.749 12.675-16.235 12.851-23.38 41.106-24.688 59.042-.697 11.94 16.995 9.182 41.325-8.203 55.454-23.574 17.645-33.86-1.564-33.787-15.578 28.53 19.837 50.785-7.232 36.303-34.293-9.534-15.264-25.683-12.537-34.405 7.202-3.47 7.349-8.167 12.269-19.922 12.092 14.378 17.466 10.882 35.89-1.323 49.103-10.083 10.916-17.331 12.564-27.12 13.61-16.578-1.122-22.884-5.968-29.548-10.992-23.613-17.795-25.236-45.562-25.229-45.546z" fill="#ccc" stroke="#000" stroke-width="8.0003234"/></svg>