<svg viewBox="0 0 300 300" xmlns="http://www.w3.org/2000/svg" fill-rule="evenodd" clip-rule="evenodd" stroke-linecap="round" stroke-linejoin="round" stroke-miterlimit="1.5"><path d="M198.79 210.67c-12.002 8.4-26.608 13.33-42.356 13.33-40.842 0-74-33.158-74-74s33.158-74 74-74c15.748 0 30.354 4.93 42.357 13.33A64.76 64.76 0 00175.434 85c-35.874 0-65 29.126-65 65 0 35.874 29.126 65 65 65a64.76 64.76 0 0023.357-4.33z" fill="#ccc" stroke="#000" stroke-width="8"/><path d="M158.5 115l5.725 17.275h18.527l-14.989 10.676 5.726 17.274-14.989-10.676-14.989 10.676 5.726-17.274-14.989-10.676h18.527L158.5 115z" fill="#ccc" stroke="#000" stroke-width="8.08" transform="matrix(.9804 0 0 1 38.398 12.387)"/></svg>