<?xml version="1.0" encoding="UTF-8" standalone="no"?><!DOCTYPE svg PUBLIC "-//W3C//DTD SVG 1.1//EN" "http://www.w3.org/Graphics/SVG/1.1/DTD/svg11.dtd"><svg width="100%" height="100%" viewBox="0 0 300 300" version="1.1" xmlns="http://www.w3.org/2000/svg" xmlns:xlink="http://www.w3.org/1999/xlink" xml:space="preserve" xmlns:serif="http://www.serif.com/" style="fill-rule:evenodd;clip-rule:evenodd;stroke-linecap:round;stroke-linejoin:round;stroke-miterlimit:1.5;"> <g transform="matrix(1,0,0,1,45.4335,-4)"> <path d="M153.357,214.67C141.354,223.07 126.748,228 111,228C70.158,228 37,194.842 37,154C37,113.158 70.158,80 111,80C126.748,80 141.354,84.93 153.357,93.33C146.106,90.533 138.231,89 130,89C94.126,89 65,118.126 65,154C65,189.874 94.126,219 130,219C138.231,219 146.106,217.467 153.357,214.67Z" style="fill:rgb(204,204,204);stroke:black;stroke-width:8px;"/> </g> <g transform="matrix(0.980392,0,0,1,38.398,12.3873)"> <path d="M158.5,115L164.225,132.275L182.752,132.275L167.763,142.951L173.489,160.225L158.5,149.549L143.511,160.225L149.237,142.951L134.248,132.275L152.775,132.275L158.5,115Z" style="fill:rgb(204,204,204);stroke:black;stroke-width:8.08px;"/> </g></svg>