<?xml version="1.0" encoding="UTF-8" standalone="no"?><!DOCTYPE svg PUBLIC "-//W3C//DTD SVG 1.1//EN" "http://www.w3.org/Graphics/SVG/1.1/DTD/svg11.dtd"><svg width="100%" height="100%" viewBox="0 0 300 300" version="1.1" xmlns="http://www.w3.org/2000/svg" xmlns:xlink="http://www.w3.org/1999/xlink" xml:space="preserve" xmlns:serif="http://www.serif.com/" style="fill-rule:evenodd;clip-rule:evenodd;stroke-linejoin:round;stroke-miterlimit:1.41421;"> <path d="M150,132.322L200.731,81.592C203.057,79.265 206.213,77.958 209.504,77.958C212.795,77.958 215.951,79.265 218.278,81.592C218.279,81.592 218.279,81.593 218.28,81.593C220.641,83.954 221.967,87.157 221.967,90.496C221.967,93.835 220.641,97.037 218.28,99.398L167.678,150L218.345,200.667C223.225,205.548 223.225,213.461 218.345,218.342C218.344,218.342 218.344,218.343 218.343,218.343C213.462,223.225 205.547,223.225 200.665,218.343L150,167.678L99.398,218.28C97.037,220.641 93.835,221.967 90.496,221.967C87.157,221.967 83.954,220.641 81.593,218.28C81.593,218.279 81.592,218.279 81.592,218.278C79.265,215.951 77.958,212.795 77.958,209.504C77.958,206.213 79.265,203.057 81.592,200.731L132.322,150L81.657,99.335C76.775,94.453 76.775,86.538 81.657,81.657C81.657,81.656 81.658,81.656 81.658,81.655C86.539,76.775 94.452,76.775 99.333,81.655L150,132.322Z" style="fill:rgb(204,204,204);"/></svg>