<svg viewBox="0 0 300 300" xmlns="http://www.w3.org/2000/svg" fill-rule="evenodd" clip-rule="evenodd" stroke-linejoin="round" stroke-miterlimit="1.414"><path d="M150 132.322l50.731-50.73a12.404 12.404 0 0117.547 0l.002.001a12.591 12.591 0 010 17.805L167.678 150l50.667 50.667c4.88 4.881 4.88 12.794 0 17.675l-.002.001c-4.881 4.882-12.796 4.882-17.678 0L150 167.678 99.398 218.28a12.589 12.589 0 01-17.805 0l-.001-.002a12.408 12.408 0 010-17.547L132.322 150 81.657 99.335c-4.882-4.882-4.882-12.797 0-17.678l.001-.002c4.881-4.88 12.794-4.88 17.675 0L150 132.322z" fill="#cccccb" stroke="#000" stroke-width="8" transform="matrix(1.02744 0 0 1.02745 -4.097 -4.098)"/></svg>