<?xml version="1.0" encoding="UTF-8" standalone="no"?>
<!DOCTYPE svg PUBLIC "-//W3C//DTD SVG 1.1//EN" "http://www.w3.org/Graphics/SVG/1.1/DTD/svg11.dtd">
<svg width="100%" height="100%" viewBox="0 0 300 300" version="1.1" xmlns="http://www.w3.org/2000/svg" xmlns:xlink="http://www.w3.org/1999/xlink" xml:space="preserve" xmlns:serif="http://www.serif.com/" style="fill-rule:evenodd;clip-rule:evenodd;stroke-linejoin:round;stroke-miterlimit:1.41421;">
    <g transform="matrix(0.772239,-0.772239,1.10485,1.10485,-145.506,131.728)">
        <path d="M268,141.941C268,139.835 266.803,137.815 264.672,136.326C262.542,134.837 259.652,134 256.639,134C224.689,134 134.311,134 102.361,134C99.348,134 96.458,134.837 94.328,136.326C92.197,137.815 91,139.835 91,141.941C91,141.942 91,141.942 91,141.942C91,144.079 92.215,146.129 94.377,147.64C96.538,149.151 99.471,150 102.528,150C134.568,150 224.432,150 256.472,150C259.529,150 262.462,149.151 264.623,147.64C266.785,146.129 268,144.079 268,141.942C268,141.942 268,141.942 268,141.941Z" style="fill:rgb(235,235,235);"/>
    </g>
    <g transform="matrix(0.772239,0.772239,-1.10485,1.10485,168.272,-145.506)">
        <path d="M268,141.999C268,137.581 262.876,134 256.556,134C224.562,134 134.438,134 102.444,134C96.124,134 91,137.581 91,141.999C91,141.999 91,142 91,142C91,146.418 96.124,150 102.446,150C134.441,150 224.559,150 256.554,150C262.876,150 268,146.418 268,142C268,142 268,141.999 268,141.999Z" style="fill:rgb(235,235,235);"/>
    </g>
</svg>
